<svg width="17" height="17" viewBox="0 0 17 17" fill="none" xmlns="http://www.w3.org/2000/svg">
<g id="bank-note-03">
<path id="Icon" d="M9.69086 6.74974L8.05706 6.75309C7.51567 6.7542 7.07768 7.19398 7.07879 7.73538C7.0799 8.27677 7.51968 8.71476 8.06108 8.71365L8.7146 8.71231C9.25599 8.7112 9.69578 9.14919 9.69689 9.69058C9.698 10.232 9.26001 10.6718 8.71862 10.6729L7.08482 10.6762M8.38248 6.0989L8.38382 6.75242M8.39186 10.6735L8.3932 11.3271M12.309 8.70494L12.3155 8.70493M4.46672 8.72101L4.47325 8.721M1.84755 6.243L1.85773 11.2097C1.85923 11.9418 1.85998 12.3078 2.00301 12.5871C2.12883 12.8327 2.32919 13.0323 2.57538 13.1571C2.85526 13.299 3.22127 13.2982 3.95328 13.2967L12.8412 13.2785C13.5732 13.277 13.9392 13.2763 14.2185 13.1332C14.4641 13.0074 14.6637 12.8071 14.7885 12.5609C14.9304 12.281 14.9296 11.915 14.9281 11.183L14.9179 6.21621C14.9164 5.4842 14.9157 5.11819 14.7727 4.83889C14.6469 4.59321 14.4465 4.39367 14.2003 4.26887C13.9204 4.12698 13.5544 4.12773 12.8224 4.12923L3.93453 4.14745C3.20251 4.14895 2.83651 4.1497 2.55721 4.29273C2.31153 4.41854 2.11199 4.61891 1.98718 4.8651C1.8453 5.14498 1.84605 5.51099 1.84755 6.243ZM12.6357 8.70427C12.6361 8.88474 12.4901 9.03133 12.3096 9.0317C12.1292 9.03207 11.9826 8.88608 11.9822 8.70561C11.9818 8.52515 12.1278 8.37855 12.3083 8.37818C12.4888 8.37781 12.6353 8.52381 12.6357 8.70427ZM4.79348 8.72035C4.79385 8.90081 4.64785 9.04741 4.46739 9.04777C4.28692 9.04814 4.14033 8.90215 4.13996 8.72168C4.13959 8.54122 4.28558 8.39462 4.46605 8.39425C4.64651 8.39389 4.79311 8.53988 4.79348 8.72035Z" stroke="#0ACD6C" stroke-width="1.30704" stroke-linecap="round" stroke-linejoin="round"/>
</g>
</svg>
