<svg width="192" height="191" viewBox="0 0 192 191" fill="none" xmlns="http://www.w3.org/2000/svg">
<g id="bounty_illustration.svg" clip-path="url(#clip0_57_2264)">
<path id="Vector" d="M95.1405 167.434C135.548 167.434 168.305 134.677 168.305 94.2691C168.305 53.8612 135.548 21.1041 95.1405 21.1041C54.7327 21.1041 21.9756 53.8612 21.9756 94.2691C21.9756 134.677 54.7327 167.434 95.1405 167.434Z" stroke="#C4B5FD" stroke-width="1.31164" stroke-dasharray="5.25 5.25"/>
<path id="Vector_2" d="M77.6569 101.068H52.4023V130.208H77.6569V101.068Z" fill="#EDE9FE"/>
<path id="Vector_3" d="M108.738 85.5271H82.5127V130.208H108.738V85.5271Z" fill="#DDD6FE"/>
<path id="Vector_4" d="M138.85 102.04H113.596V130.208H138.85V102.04Z" fill="#DDD6FE"/>
<path id="Vector_5" d="M64.5435 92.3264C67.4939 92.3264 69.8857 89.9346 69.8857 86.9841C69.8857 84.0337 67.4939 81.6418 64.5435 81.6418C61.593 81.6418 59.2012 84.0337 59.2012 86.9841C59.2012 89.9346 61.593 92.3264 64.5435 92.3264Z" fill="#0ACD6C"/>
<path id="Vector_6" d="M94.6548 78.7279C97.6053 78.7279 99.9971 76.3361 99.9971 73.3856C99.9971 70.4352 97.6053 68.0433 94.6548 68.0433C91.7043 68.0433 89.3125 70.4352 89.3125 73.3856C89.3125 76.3361 91.7043 78.7279 94.6548 78.7279Z" fill="#0ACD6C"/>
<path id="Vector_7" d="M125.737 92.3264C128.687 92.3264 131.079 89.9346 131.079 86.9841C131.079 84.0337 128.687 81.6418 125.737 81.6418C122.786 81.6418 120.395 84.0337 120.395 86.9841C120.395 89.9346 122.786 92.3264 125.737 92.3264Z" fill="#0ACD6C"/>
<path id="Vector_8" opacity="0.56" d="M26.3286 160.213C29.2791 160.213 31.6709 157.821 31.6709 154.871C31.6709 151.92 29.2791 149.528 26.3286 149.528C23.3782 149.528 20.9863 151.92 20.9863 154.871C20.9863 157.821 23.3782 160.213 26.3286 160.213Z" fill="#0ACD6C"/>
<path id="Vector_9" opacity="0.56" d="M26.3286 44.7882C29.2791 44.7882 31.6709 42.3964 31.6709 39.4459C31.6709 36.4955 29.2791 34.1036 26.3286 34.1036C23.3782 34.1036 20.9863 36.4955 20.9863 39.4459C20.9863 42.3964 23.3782 44.7882 26.3286 44.7882Z" fill="#0ACD6C"/>
<path id="Vector_10" opacity="0.56" d="M94.5337 189.069C97.4842 189.069 99.876 186.677 99.876 183.727C99.876 180.776 97.4842 178.385 94.5337 178.385C91.5832 178.385 89.1914 180.776 89.1914 183.727C89.1914 186.677 91.5832 189.069 94.5337 189.069Z" fill="#0ACD6C"/>
<path id="Vector_11" opacity="0.56" d="M94.5337 10.6854C97.4842 10.6854 99.876 8.2936 99.876 5.34314C99.876 2.39268 97.4842 0.000854492 94.5337 0.000854492C91.5832 0.000854492 89.1914 2.39268 89.1914 5.34314C89.1914 8.2936 91.5832 10.6854 94.5337 10.6854Z" fill="#0ACD6C"/>
<path id="Vector_12" opacity="0.56" d="M164.051 160.213C167.002 160.213 169.394 157.821 169.394 154.871C169.394 151.92 167.002 149.528 164.051 149.528C161.101 149.528 158.709 151.92 158.709 154.871C158.709 157.821 161.101 160.213 164.051 160.213Z" fill="#0ACD6C"/>
<path id="Vector_13" opacity="0.56" d="M164.051 44.7882C167.002 44.7882 169.394 42.3964 169.394 39.4459C169.394 36.4955 167.002 34.1036 164.051 34.1036C161.101 34.1036 158.709 36.4955 158.709 39.4459C158.709 42.3964 161.101 44.7882 164.051 44.7882Z" fill="#0ACD6C"/>
<path id="Vector_14" opacity="0.56" d="M5.34229 99.8772C8.29275 99.8772 10.6846 97.4854 10.6846 94.5349C10.6846 91.5844 8.29275 89.1926 5.34229 89.1926C2.39182 89.1926 0 91.5844 0 94.5349C0 97.4854 2.39182 99.8772 5.34229 99.8772Z" fill="#0ACD6C"/>
<path id="Vector_15" opacity="0.56" d="M185.038 99.8772C187.988 99.8772 190.38 97.4854 190.38 94.5349C190.38 91.5844 187.988 89.1926 185.038 89.1926C182.087 89.1926 179.695 91.5844 179.695 94.5349C179.695 97.4854 182.087 99.8772 185.038 99.8772Z" fill="#0ACD6C"/>
</g>
<defs>
<clipPath id="clip0_57_2264">
<rect width="191.5" height="190.188" fill="white" transform="translate(0 0.000854492)"/>
</clipPath>
</defs>
</svg>
