<svg width="23" height="23" viewBox="0 0 23 23" fill="none" xmlns="http://www.w3.org/2000/svg">
  <path fill-rule="evenodd" clip-rule="evenodd" d="M9.00644 1.40381H14.6039V3.26964H9.00644V1.40381ZM10.8723 13.5317V7.93423H12.7381V13.5317H10.8723ZM18.3636 7.35582L19.6883 6.03108C19.2872 5.55529 18.8487 5.10749 18.3729 4.71566L17.0482 6.04041C15.6022 4.88359 13.783 4.19323 11.8052 4.19323C7.16859 4.19323 3.40894 7.95289 3.40894 12.5895C3.40894 17.2261 7.15926 20.9857 11.8052 20.9857C16.4511 20.9857 20.2014 17.2261 20.2014 12.5895C20.2014 10.621 19.5111 8.80185 18.3636 7.35582ZM5.27477 12.5988C5.27477 16.2092 8.1948 19.1292 11.8052 19.1292C15.4156 19.1292 18.3356 16.2092 18.3356 12.5988C18.3356 8.98842 15.4156 6.06839 11.8052 6.06839C8.1948 6.06839 5.27477 8.98842 5.27477 12.5988Z" fill="#0ACD6C"/>
</svg>