<svg width="10" height="10" viewBox="0 0 10 10" fill="none" xmlns="http://www.w3.org/2000/svg">
  <path d="M4.53834 0.409768C4.70914 -0.000877798 5.29086 -0.000877142 5.46166 0.409769L6.46974 2.83348C6.54174 3.0066 6.70455 3.12488 6.89144 3.13986L9.50804 3.34964C9.95137 3.38518 10.1311 3.93843 9.79336 4.22777L7.79979 5.93547C7.65739 6.05745 7.59521 6.24884 7.63871 6.43121L8.24778 8.98457C8.35098 9.41718 7.88035 9.75911 7.5008 9.52728L5.26063 8.15899C5.10062 8.06126 4.89938 8.06126 4.73937 8.15899L2.4992 9.52728C2.11965 9.75911 1.64902 9.41718 1.75222 8.98457L2.36129 6.43121C2.40479 6.24884 2.3426 6.05745 2.20021 5.93547L0.206638 4.22776C-0.13113 3.93843 0.0486337 3.38518 0.491961 3.34964L3.10856 3.13986C3.29545 3.12488 3.45826 3.0066 3.53026 2.83348L4.53834 0.409768Z" fill="#64758B"/>
</svg>