<svg width="720" height="720" viewBox="0 0 720 720" fill="none" xmlns="http://www.w3.org/2000/svg">
<path d="M461.741 258.235C515.082 311.576 548.337 374.873 559.002 434.071C569.667 493.271 557.736 548.321 520.784 585.272C483.833 622.224 428.783 634.155 369.583 623.49C310.385 612.825 247.088 579.57 193.747 526.229C140.406 472.888 107.151 409.591 96.4861 350.393C85.8211 291.193 97.7523 236.143 134.704 199.192C171.655 162.24 226.705 150.309 285.905 160.974C345.103 171.639 408.4 204.894 461.741 258.235Z" stroke="black"/>
<path d="M493.741 226.235C547.082 279.576 580.337 342.873 591.002 402.071C601.667 461.271 589.736 516.321 552.784 553.272C515.833 590.224 460.783 602.155 401.583 591.49C342.385 580.825 279.088 547.57 225.747 494.229C172.406 440.888 139.151 377.591 128.486 318.393C117.821 259.193 129.752 204.143 166.704 167.192C203.655 130.24 258.705 118.309 317.905 128.974C377.103 139.639 440.4 172.894 493.741 226.235Z" stroke="black"/>
<path d="M525.741 194.235C579.082 247.576 612.337 310.873 623.002 370.071C633.667 429.271 621.736 484.321 584.784 521.272C547.833 558.224 492.783 570.155 433.583 559.49C374.385 548.825 311.088 515.57 257.747 462.229C204.406 408.888 171.151 345.591 160.486 286.393C149.821 227.193 161.752 172.143 198.704 135.192C235.655 98.2403 290.705 86.3092 349.905 96.9741C409.103 107.639 472.4 140.894 525.741 194.235Z" stroke="black"/>
</svg>
