<svg width="24" height="25" viewBox="0 0 24 25" fill="none" xmlns="http://www.w3.org/2000/svg">
<g id="Img &#226;&#134;&#146; Img">
<path id="Vector" d="M15.5 14.28H14.71L14.43 14.01C15.4439 12.8341 16.0011 11.3327 16 9.78003C16 8.49445 15.6188 7.23775 14.9046 6.16883C14.1903 5.09991 13.1752 4.26678 11.9874 3.77482C10.7997 3.28285 9.49279 3.15412 8.23192 3.40493C6.97104 3.65573 5.81285 4.2748 4.90381 5.18384C3.99477 6.09288 3.3757 7.25107 3.1249 8.51194C2.87409 9.77282 3.00282 11.0798 3.49479 12.2675C3.98676 13.4552 4.81988 14.4704 5.8888 15.1846C6.95772 15.8988 8.21442 16.28 9.5 16.28C11.11 16.28 12.59 15.69 13.73 14.71L14 14.99V15.78L19 20.77L20.49 19.28L15.5 14.28ZM9.5 14.28C7.01 14.28 5 12.27 5 9.78003C5 7.29003 7.01 5.28003 9.5 5.28003C11.99 5.28003 14 7.29003 14 9.78003C14 12.27 11.99 14.28 9.5 14.28Z" fill="black"/>
</g>
</svg>
