<svg width="23" height="22" viewBox="0 0 23 22" fill="none" xmlns="http://www.w3.org/2000/svg">
  <g clip-path="url(#clip0_363_4194)">
    <path d="M20.1508 4.84313C20.8001 4.84313 21.3262 5.06702 21.7404 5.50362C22.1658 5.9626 22.3897 6.46637 22.3897 7.08208V19.3963C22.3897 20.012 22.1658 20.5158 21.7404 20.9747C21.3262 21.4113 20.8001 21.6352 20.1508 21.6352H2.23919C1.5899 21.6352 1.06374 21.4113 0.649539 20.9747C0.224139 20.5158 0.000244141 20.012 0.000244141 19.3963V7.08208C0.000244141 6.46637 0.224139 5.9626 0.649539 5.50362C1.06374 5.06702 1.5899 4.84313 2.23919 4.84313H6.71709V2.60418C6.71709 1.95489 6.94098 1.42873 7.36638 1.01453C7.78059 0.589129 8.30674 0.365234 8.95603 0.365234H13.4339C14.0832 0.365234 14.6094 0.589129 15.0236 1.01453C15.449 1.42873 15.6729 1.95489 15.6729 2.60418V4.84313H20.1508ZM2.23919 7.08208V19.3963H20.1508V7.08208H2.23919ZM13.4339 4.84313V2.60418H8.95603V4.84313H13.4339Z" fill="#0ACD6C"/>
  </g>
  <defs>
    <clipPath id="clip0_363_4194">
      <rect width="22.3895" height="21.27" fill="white" transform="translate(0.000244141 0.365234)"/>
    </clipPath>
  </defs>
</svg>