<svg width="16" height="16" viewBox="0 0 16 16" fill="none" xmlns="http://www.w3.org/2000/svg">
<g id="Frame">
<path id="Vector" d="M8.00033 9.33329V10.6666C5.79119 10.6666 4.00033 12.4575 4.00033 14.6666H2.66699C2.66699 11.7211 5.05481 9.33329 8.00033 9.33329ZM8.00033 8.66663C5.79033 8.66663 4.00033 6.87663 4.00033 4.66663C4.00033 2.45663 5.79033 0.666626 8.00033 0.666626C10.2103 0.666626 12.0003 2.45663 12.0003 4.66663C12.0003 6.87663 10.2103 8.66663 8.00033 8.66663ZM8.00033 7.33329C9.47366 7.33329 10.667 6.13996 10.667 4.66663C10.667 3.19329 9.47366 1.99996 8.00033 1.99996C6.52699 1.99996 5.33366 3.19329 5.33366 4.66663C5.33366 6.13996 6.52699 7.33329 8.00033 7.33329ZM9.73006 12.541C9.68879 12.3674 9.66699 12.1862 9.66699 12C9.66699 11.8138 9.68879 11.6326 9.72999 11.459L9.06893 11.0774L9.73559 9.92263L10.3971 10.3046C10.6592 10.0567 10.9787 9.86889 11.3337 9.76323V8.99996H12.667V9.76323C13.0219 9.86889 13.3414 10.0567 13.6035 10.3046L14.2651 9.92256L14.9318 11.0773L14.2707 11.459C14.3119 11.6326 14.3337 11.8138 14.3337 12C14.3337 12.1862 14.3119 12.3673 14.2707 12.5409L14.9318 12.9226L14.2651 14.0773L13.6035 13.6953C13.3415 13.9432 13.022 14.131 12.6671 14.2366V15H11.3337V14.2367C10.9788 14.1311 10.6593 13.9433 10.3972 13.6954L9.73566 14.0774L9.06893 12.9226L9.73006 12.541ZM12.0003 13C12.5526 13 13.0003 12.5522 13.0003 12C13.0003 11.4477 12.5526 11 12.0003 11C11.4481 11 11.0003 11.4477 11.0003 12C11.0003 12.5522 11.4481 13 12.0003 13Z" fill="black"/>
</g>
</svg>
