<svg width="26" height="26" viewBox="0 0 26 26" fill="none" xmlns="http://www.w3.org/2000/svg">
<g id="ton_symbol 1" clip-path="url(#clip0_72_314)">
<path id="Vector" d="M12.9795 25.995C6.07592 25.995 0.479492 20.1747 0.479492 12.995C0.479492 5.81528 6.07592 -0.00500488 12.9795 -0.00500488C19.8831 -0.00500488 25.4795 5.81528 25.4795 12.995C25.4795 20.1747 19.8831 25.995 12.9795 25.995Z" fill="#0098EA"/>
<path id="Vector_2" d="M8.71169 7.25073H17.2482C18.8177 7.25073 19.8125 9.01154 19.0229 10.435L13.7545 19.9319C13.4107 20.552 12.5491 20.552 12.2053 19.9319L6.93588 10.435C6.14731 9.01381 7.14213 7.25073 8.71061 7.25073H8.71169ZM13.7588 17.0839L14.9061 14.7745L17.6746 9.62495C17.8573 9.29535 17.6317 8.87299 17.2492 8.87299H13.7599V17.085L13.7588 17.0839ZM8.28735 9.62384L11.0548 14.7756L12.2021 17.0839V8.87188H8.71276C8.3303 8.87188 8.10472 9.29424 8.28735 9.62384Z" fill="white"/>
</g>
<defs>
<clipPath id="clip0_72_314">
<rect width="25" height="26" fill="white" transform="matrix(-1 0 0 1 25.4795 -0.00500488)"/>
</clipPath>
</defs>
</svg>
