<svg width="1948" height="2588" viewBox="0 0 1948 2588" fill="none" xmlns="http://www.w3.org/2000/svg">
<path d="M973.938 1948.03C1511.64 1948.03 1947.54 1512.14 1947.54 974.432C1947.54 436.728 1511.64 0.832031 973.938 0.832031C436.233 0.832031 0.337891 436.728 0.337891 974.432C0.337891 1512.14 436.233 1948.03 973.938 1948.03Z" fill="url(#paint0_radial_290_788)"/>
<path d="M384.488 2587.59V1743.88L713.4 1295.78V1290.88L1041.96 843.255V840.88L1447.37 288.551L1626.51 849.471V2587.59H384.488Z" fill="white"/>
<path d="M919.037 2537.59H434.488V1760.26L772.132 1300.26L919.037 1760.26V2537.59Z" fill="#27AAE1"/>
<path d="M772.132 1300.26L434.488 1760.26V2537.59H772.132V1300.26Z" fill="#1D3164"/>
<path d="M1247.95 2537.59H763.4V1307.26L1101.04 847.261L1247.95 1307.26V2537.59Z" fill="#27AAE1"/>
<path d="M1101.04 847.261L763.4 1307.26V2537.59H1101.04V847.261Z" fill="#166BA3"/>
<path d="M1576.51 2537.59H1091.96V857.261L1429.6 397.261L1576.51 857.261V2537.59Z" fill="#B3C7E7"/>
<path d="M1429.6 397.261L1091.96 857.261V2537.59H1429.6V397.261Z" fill="#27AAE1"/>
<defs>
<radialGradient id="paint0_radial_290_788" cx="0" cy="0" r="1" gradientUnits="userSpaceOnUse" gradientTransform="translate(973.938 974.431) scale(973.6 973.6)">
<stop offset="0.4247" stop-color="#FFF200"/>
<stop offset="1" stop-color="#FFD200"/>
</radialGradient>
</defs>
</svg>
